<svg xmlns="http://www.w3.org/2000/svg" width="25" height="25" viewBox="0 0 25 25">
  <path id="ico-leichte-sprache" d="M22.457,9.376l-.1,0c-2.432.139-6.861.635-9.855,2.323C9.506,10.013,5.076,9.517,2.645,9.378c-.033,0-.066,0-.1,0A2.48,2.48,0,0,0,0,11.827v8.694a2.47,2.47,0,0,0,2.36,2.447c1.68.088,5.887.443,8.643,1.83a1.847,1.847,0,0,0,.716.187V25h1.563v-.013A1.855,1.855,0,0,0,14,24.8c2.756-1.386,6.962-1.741,8.643-1.83A2.47,2.47,0,0,0,25,20.521V11.827A2.48,2.48,0,0,0,22.457,9.376ZM11.719,23.406s-.009,0-.014,0c-2.91-1.463-7.052-1.877-9.263-1.994a.908.908,0,0,1-.88-.887V11.827a.731.731,0,0,1,.29-.645,1.252,1.252,0,0,1,.7-.245c1.807.1,6.312.517,9.164,2.117Zm11.719-2.885a.908.908,0,0,1-.88.887c-2.21.116-6.353.53-9.266,2,0,0-.007,0-.011,0V13.055c2.851-1.6,7.356-2.014,9.156-2.117h.019c.01,0,.981.024.981.889v8.694ZM12.5,9.375A4.687,4.687,0,1,0,7.813,4.687,4.687,4.687,0,0,0,12.5,9.375Zm0-7.812A3.125,3.125,0,1,1,9.375,4.688,3.129,3.129,0,0,1,12.5,1.563Z"/>
</svg>
