<svg id="_0973-sun2" data-name="0973-sun2" xmlns="http://www.w3.org/2000/svg" width="64" height="64" viewBox="0 0 64 64">
  <path id="Pfad_81" data-name="Pfad 81" d="M32,52a4,4,0,0,1,4,4v4a4,4,0,0,1-8,0V56A4,4,0,0,1,32,52Zm0-40a4,4,0,0,1-4-4V4a4,4,0,0,1,8,0V8A4,4,0,0,1,32,12ZM60,28a4,4,0,0,1,0,8H56a4,4,0,0,1,0-8ZM12,32a4,4,0,0,1-4,4H4a4,4,0,0,1,0-8H8A4,4,0,0,1,12,32ZM51.8,46.142l2.828,2.829a4,4,0,0,1-5.657,5.657L46.142,51.8A4,4,0,0,1,51.8,46.143ZM12.2,17.858,9.372,15.029a4,4,0,0,1,5.657-5.657L17.857,12.2A4,4,0,0,1,12.2,17.858Zm39.6,0A4,4,0,0,1,46.142,12.2L48.97,9.373a4,4,0,1,1,5.657,5.657L51.8,17.858ZM12.2,46.142A4,4,0,0,1,17.858,51.8L15.03,54.627A4,4,0,0,1,9.373,48.97L12.2,46.141Z" fill="#399248"/>
  <path id="Pfad_82" data-name="Pfad 82" d="M32,16A16,16,0,1,0,48,32,16,16,0,0,0,32,16Zm0,26A10,10,0,1,1,42,32,10,10,0,0,1,32,42Z" fill="#399248"/>
</svg>
