<svg xmlns="http://www.w3.org/2000/svg" width="21.875" height="25" viewBox="0 0 21.875 25">
  <path id="flask" d="M21.357,19.7l-5.723-9.2V3.125h.391A1.169,1.169,0,0,0,17.2,1.953V1.172A1.169,1.169,0,0,0,16.025,0H5.868A1.169,1.169,0,0,0,4.7,1.172v.781A1.169,1.169,0,0,0,5.868,3.125h.391V10.5L.536,19.7A3.468,3.468,0,0,0,3.471,25H18.422A3.467,3.467,0,0,0,21.357,19.7ZM6.742,15.625,9.1,11.836a1.547,1.547,0,0,0,.283-.9V3.125H12.5v7.813a1.571,1.571,0,0,0,.283.9l2.354,3.789Z" transform="translate(-0.009)" fill="#fff"/>
</svg>
