<svg xmlns="http://www.w3.org/2000/svg" width="21.875" height="25" viewBox="0 0 21.875 25">
  <path id="ico-gebaerdensprache" d="M21.874,12.47l-.218-6.746A2.416,2.416,0,0,0,17.2,4.505L14.465.946A2.405,2.405,0,0,0,10.647.938a2.416,2.416,0,0,0-3.39,2.651,2.458,2.458,0,0,0-.946,3.75l.235.306a2.446,2.446,0,0,0-.71,3.6l.411.536H3.664a2.432,2.432,0,0,0-2.34,3.044A2.437,2.437,0,0,0,1.3,19.149a2.444,2.444,0,0,0,2.36,3.07h.354A2.43,2.43,0,0,0,6.4,25h4.682a7.078,7.078,0,0,0,1.642-.193l3.508-.838a2.686,2.686,0,0,0,2.052-2.617V16.7l2.566-2.028A2.707,2.707,0,0,0,21.874,12.47ZM5.55,22.581a.862.862,0,0,1,.251-.624.875.875,0,0,1,.628-.267H9.145a.391.391,0,0,0,.391-.391v-.253a.391.391,0,0,0-.391-.391H3.657a.874.874,0,0,1-.025-1.747H9.145a.391.391,0,0,0,.391-.391v-.253a.391.391,0,0,0-.391-.391h-6.7a.874.874,0,0,1-.025-1.747H9.145a.391.391,0,0,0,.391-.391v-.253a.391.391,0,0,0-.391-.391H3.689a.874.874,0,0,1-.025-1.747h7.349a.391.391,0,0,0,.232-.7l-1.355-1a.867.867,0,0,1,1-1.416l5.378,3.97a1.137,1.137,0,0,1,.457.913v6.245a1.118,1.118,0,0,1-.852,1.1l-3.508.838a5.511,5.511,0,0,1-1.279.151H6.4a.868.868,0,0,1-.855-.856ZM8.438,9.238l.37.482a2.031,2.031,0,0,0,.051,2.49H8.545L7.077,10.3A.862.862,0,1,1,8.438,9.238Zm8.5,4.041L11.56,9.309a1.975,1.975,0,0,0-1.941-.227l-2.068-2.7c-.7-.917.619-2.026,1.331-1.1L12.268,9.7a.391.391,0,0,0,.552.069l.2-.155a.391.391,0,0,0,.068-.544L8.967,3.706c-.7-.917.619-2.026,1.331-1.1L14.43,8a.391.391,0,0,0,.552.069l.2-.155a.391.391,0,0,0,.068-.544L11.895,2.995c-.7-.916.617-2.028,1.331-1.1L17.74,7.783a.391.391,0,0,0,.7-.25l-.055-1.7a.855.855,0,1,1,1.709-.058l.218,6.746a1.138,1.138,0,0,1-.427.928l-2.03,1.6a2.278,2.278,0,0,0-.917-1.774Z" transform="translate(-0.001)"/>
</svg>
